<mxfile host="Electron" modified="2024-04-07T14:13:36.454Z" agent="Mozilla/5.0 (X11; Linux x86_64) AppleWebKit/537.36 (KHTML, like Gecko) draw.io/21.2.8 Chrome/116.0.5845.228 Electron/26.3.0 Safari/537.36" etag="ZCMYLDsy4wkupHfrY9Wx" version="21.2.8" type="device">
  <diagram name="Page-1" id="CwbQo5ir0nhm6T4oQdQG">
    <mxGraphModel dx="1834" dy="1288" grid="0" gridSize="10" guides="1" tooltips="1" connect="1" arrows="1" fold="1" page="0" pageScale="1" pageWidth="850" pageHeight="1100" math="0" shadow="0">
      <root>
        <mxCell id="0" />
        <mxCell id="1" parent="0" />
        <mxCell id="rqwqAZRjV1nUWiU21sHI-1" value="&lt;b&gt;&lt;font style=&quot;font-size: 35px;&quot;&gt;&lt;br&gt;ML Feature Store&lt;/font&gt;&lt;/b&gt;" style="shape=document;whiteSpace=wrap;html=1;boundedLbl=1;fontSize=16;" vertex="1" parent="1">
          <mxGeometry x="-339.5" y="-18" width="817" height="213" as="geometry" />
        </mxCell>
        <mxCell id="rqwqAZRjV1nUWiU21sHI-2" value="ML Model 1" style="rounded=1;whiteSpace=wrap;html=1;fontSize=16;" vertex="1" parent="1">
          <mxGeometry x="-313" y="-178" width="120" height="60" as="geometry" />
        </mxCell>
        <mxCell id="rqwqAZRjV1nUWiU21sHI-17" style="edgeStyle=none;curved=1;rounded=0;orthogonalLoop=1;jettySize=auto;html=1;exitX=0.5;exitY=1;exitDx=0;exitDy=0;entryX=0.5;entryY=0;entryDx=0;entryDy=0;fontSize=12;startSize=8;endSize=8;" edge="1" parent="1" source="rqwqAZRjV1nUWiU21sHI-3" target="rqwqAZRjV1nUWiU21sHI-9">
          <mxGeometry relative="1" as="geometry" />
        </mxCell>
        <mxCell id="rqwqAZRjV1nUWiU21sHI-18" style="edgeStyle=none;curved=1;rounded=0;orthogonalLoop=1;jettySize=auto;html=1;exitX=0.5;exitY=1;exitDx=0;exitDy=0;entryX=0.5;entryY=0;entryDx=0;entryDy=0;fontSize=12;startSize=8;endSize=8;" edge="1" parent="1" source="rqwqAZRjV1nUWiU21sHI-3" target="rqwqAZRjV1nUWiU21sHI-8">
          <mxGeometry relative="1" as="geometry" />
        </mxCell>
        <mxCell id="rqwqAZRjV1nUWiU21sHI-3" value="ML Model 2" style="rounded=1;whiteSpace=wrap;html=1;fontSize=16;" vertex="1" parent="1">
          <mxGeometry x="-152" y="-178" width="120" height="60" as="geometry" />
        </mxCell>
        <mxCell id="rqwqAZRjV1nUWiU21sHI-19" style="edgeStyle=none;curved=1;rounded=0;orthogonalLoop=1;jettySize=auto;html=1;exitX=0.5;exitY=1;exitDx=0;exitDy=0;entryX=0.5;entryY=0;entryDx=0;entryDy=0;fontSize=12;startSize=8;endSize=8;" edge="1" parent="1" source="rqwqAZRjV1nUWiU21sHI-4" target="rqwqAZRjV1nUWiU21sHI-10">
          <mxGeometry relative="1" as="geometry" />
        </mxCell>
        <mxCell id="rqwqAZRjV1nUWiU21sHI-20" style="edgeStyle=none;curved=1;rounded=0;orthogonalLoop=1;jettySize=auto;html=1;exitX=0.5;exitY=1;exitDx=0;exitDy=0;entryX=0.5;entryY=0;entryDx=0;entryDy=0;fontSize=12;startSize=8;endSize=8;" edge="1" parent="1" source="rqwqAZRjV1nUWiU21sHI-4" target="rqwqAZRjV1nUWiU21sHI-13">
          <mxGeometry relative="1" as="geometry" />
        </mxCell>
        <mxCell id="rqwqAZRjV1nUWiU21sHI-21" style="edgeStyle=none;curved=1;rounded=0;orthogonalLoop=1;jettySize=auto;html=1;exitX=0.5;exitY=1;exitDx=0;exitDy=0;entryX=0.5;entryY=0;entryDx=0;entryDy=0;fontSize=12;startSize=8;endSize=8;" edge="1" parent="1" source="rqwqAZRjV1nUWiU21sHI-4" target="rqwqAZRjV1nUWiU21sHI-8">
          <mxGeometry relative="1" as="geometry" />
        </mxCell>
        <mxCell id="rqwqAZRjV1nUWiU21sHI-4" value="ML Model 3" style="rounded=1;whiteSpace=wrap;html=1;fontSize=16;" vertex="1" parent="1">
          <mxGeometry x="9" y="-178" width="120" height="60" as="geometry" />
        </mxCell>
        <mxCell id="rqwqAZRjV1nUWiU21sHI-22" style="edgeStyle=none;curved=1;rounded=0;orthogonalLoop=1;jettySize=auto;html=1;exitX=0.5;exitY=1;exitDx=0;exitDy=0;entryX=0.5;entryY=0;entryDx=0;entryDy=0;fontSize=12;startSize=8;endSize=8;" edge="1" parent="1" source="rqwqAZRjV1nUWiU21sHI-5" target="rqwqAZRjV1nUWiU21sHI-11">
          <mxGeometry relative="1" as="geometry" />
        </mxCell>
        <mxCell id="rqwqAZRjV1nUWiU21sHI-23" style="edgeStyle=none;curved=1;rounded=0;orthogonalLoop=1;jettySize=auto;html=1;exitX=0.5;exitY=1;exitDx=0;exitDy=0;entryX=0.5;entryY=0;entryDx=0;entryDy=0;fontSize=12;startSize=8;endSize=8;" edge="1" parent="1" source="rqwqAZRjV1nUWiU21sHI-5" target="rqwqAZRjV1nUWiU21sHI-12">
          <mxGeometry relative="1" as="geometry" />
        </mxCell>
        <mxCell id="rqwqAZRjV1nUWiU21sHI-5" value="ML Model 4" style="rounded=1;whiteSpace=wrap;html=1;fontSize=16;" vertex="1" parent="1">
          <mxGeometry x="170" y="-178" width="120" height="60" as="geometry" />
        </mxCell>
        <mxCell id="rqwqAZRjV1nUWiU21sHI-24" style="edgeStyle=none;curved=1;rounded=0;orthogonalLoop=1;jettySize=auto;html=1;exitX=0.5;exitY=1;exitDx=0;exitDy=0;entryX=0.5;entryY=0;entryDx=0;entryDy=0;fontSize=12;startSize=8;endSize=8;" edge="1" parent="1" source="rqwqAZRjV1nUWiU21sHI-6" target="rqwqAZRjV1nUWiU21sHI-13">
          <mxGeometry relative="1" as="geometry" />
        </mxCell>
        <mxCell id="rqwqAZRjV1nUWiU21sHI-25" style="edgeStyle=none;curved=1;rounded=0;orthogonalLoop=1;jettySize=auto;html=1;exitX=0.5;exitY=1;exitDx=0;exitDy=0;entryX=0.5;entryY=0;entryDx=0;entryDy=0;fontSize=12;startSize=8;endSize=8;" edge="1" parent="1" source="rqwqAZRjV1nUWiU21sHI-6" target="rqwqAZRjV1nUWiU21sHI-9">
          <mxGeometry relative="1" as="geometry" />
        </mxCell>
        <mxCell id="rqwqAZRjV1nUWiU21sHI-26" style="edgeStyle=none;curved=1;rounded=0;orthogonalLoop=1;jettySize=auto;html=1;exitX=0.5;exitY=1;exitDx=0;exitDy=0;entryX=0.5;entryY=0;entryDx=0;entryDy=0;fontSize=12;startSize=8;endSize=8;" edge="1" parent="1" source="rqwqAZRjV1nUWiU21sHI-6" target="rqwqAZRjV1nUWiU21sHI-11">
          <mxGeometry relative="1" as="geometry" />
        </mxCell>
        <mxCell id="rqwqAZRjV1nUWiU21sHI-6" value="ML Model 5" style="rounded=1;whiteSpace=wrap;html=1;fontSize=16;" vertex="1" parent="1">
          <mxGeometry x="331" y="-178" width="120" height="60" as="geometry" />
        </mxCell>
        <mxCell id="rqwqAZRjV1nUWiU21sHI-8" value="Feature A" style="rounded=0;whiteSpace=wrap;html=1;fontSize=16;" vertex="1" parent="1">
          <mxGeometry x="-329.5" y="-8" width="120" height="60" as="geometry" />
        </mxCell>
        <mxCell id="rqwqAZRjV1nUWiU21sHI-9" value="Feature A" style="rounded=0;whiteSpace=wrap;html=1;fontSize=16;" vertex="1" parent="1">
          <mxGeometry x="-193.5" y="-8" width="120" height="60" as="geometry" />
        </mxCell>
        <mxCell id="rqwqAZRjV1nUWiU21sHI-10" value="Feature A" style="rounded=0;whiteSpace=wrap;html=1;fontSize=16;" vertex="1" parent="1">
          <mxGeometry x="-58.5" y="-8" width="120" height="60" as="geometry" />
        </mxCell>
        <mxCell id="rqwqAZRjV1nUWiU21sHI-11" value="Feature A" style="rounded=0;whiteSpace=wrap;html=1;fontSize=16;" vertex="1" parent="1">
          <mxGeometry x="76.5" y="-8" width="120" height="60" as="geometry" />
        </mxCell>
        <mxCell id="rqwqAZRjV1nUWiU21sHI-12" value="Feature A" style="rounded=0;whiteSpace=wrap;html=1;fontSize=16;" vertex="1" parent="1">
          <mxGeometry x="211.5" y="-8" width="120" height="60" as="geometry" />
        </mxCell>
        <mxCell id="rqwqAZRjV1nUWiU21sHI-13" value="Feature A" style="rounded=0;whiteSpace=wrap;html=1;fontSize=16;" vertex="1" parent="1">
          <mxGeometry x="346.5" y="-8" width="120" height="60" as="geometry" />
        </mxCell>
        <mxCell id="rqwqAZRjV1nUWiU21sHI-15" value="" style="endArrow=classic;html=1;rounded=0;fontSize=12;startSize=8;endSize=8;curved=1;exitX=0.5;exitY=1;exitDx=0;exitDy=0;entryX=0.5;entryY=0;entryDx=0;entryDy=0;" edge="1" parent="1" source="rqwqAZRjV1nUWiU21sHI-2" target="rqwqAZRjV1nUWiU21sHI-8">
          <mxGeometry width="50" height="50" relative="1" as="geometry">
            <mxPoint x="175" y="193" as="sourcePoint" />
            <mxPoint x="225" y="143" as="targetPoint" />
          </mxGeometry>
        </mxCell>
        <mxCell id="rqwqAZRjV1nUWiU21sHI-16" value="" style="endArrow=classic;html=1;rounded=0;fontSize=12;startSize=8;endSize=8;curved=1;exitX=0.5;exitY=1;exitDx=0;exitDy=0;entryX=0.5;entryY=0;entryDx=0;entryDy=0;" edge="1" parent="1" source="rqwqAZRjV1nUWiU21sHI-2" target="rqwqAZRjV1nUWiU21sHI-12">
          <mxGeometry width="50" height="50" relative="1" as="geometry">
            <mxPoint x="-243" y="-108" as="sourcePoint" />
            <mxPoint x="120" y="-73" as="targetPoint" />
          </mxGeometry>
        </mxCell>
        <mxCell id="rqwqAZRjV1nUWiU21sHI-32" style="edgeStyle=none;curved=1;rounded=0;orthogonalLoop=1;jettySize=auto;html=1;exitX=0.5;exitY=0;exitDx=0;exitDy=0;exitPerimeter=0;fontSize=12;startSize=8;endSize=8;entryX=0.5;entryY=1;entryDx=0;entryDy=0;" edge="1" parent="1" source="rqwqAZRjV1nUWiU21sHI-27" target="rqwqAZRjV1nUWiU21sHI-30">
          <mxGeometry relative="1" as="geometry">
            <mxPoint x="66" y="289" as="targetPoint" />
          </mxGeometry>
        </mxCell>
        <mxCell id="rqwqAZRjV1nUWiU21sHI-27" value="Data Source" style="shape=cylinder3;whiteSpace=wrap;html=1;boundedLbl=1;backgroundOutline=1;size=15;fontSize=16;" vertex="1" parent="1">
          <mxGeometry x="-334" y="343" width="129" height="176" as="geometry" />
        </mxCell>
        <mxCell id="rqwqAZRjV1nUWiU21sHI-33" style="edgeStyle=none;curved=1;rounded=0;orthogonalLoop=1;jettySize=auto;html=1;exitX=0.5;exitY=0;exitDx=0;exitDy=0;exitPerimeter=0;entryX=0.5;entryY=1;entryDx=0;entryDy=0;fontSize=12;startSize=8;endSize=8;" edge="1" parent="1" source="rqwqAZRjV1nUWiU21sHI-28" target="rqwqAZRjV1nUWiU21sHI-30">
          <mxGeometry relative="1" as="geometry" />
        </mxCell>
        <mxCell id="rqwqAZRjV1nUWiU21sHI-28" value="Data Source" style="shape=cylinder3;whiteSpace=wrap;html=1;boundedLbl=1;backgroundOutline=1;size=15;fontSize=16;" vertex="1" parent="1">
          <mxGeometry x="342" y="343" width="129" height="176" as="geometry" />
        </mxCell>
        <mxCell id="rqwqAZRjV1nUWiU21sHI-31" style="edgeStyle=none;curved=1;rounded=0;orthogonalLoop=1;jettySize=auto;html=1;exitX=0.5;exitY=0;exitDx=0;exitDy=0;exitPerimeter=0;entryX=0.5;entryY=1;entryDx=0;entryDy=0;fontSize=12;startSize=8;endSize=8;" edge="1" parent="1" source="rqwqAZRjV1nUWiU21sHI-29" target="rqwqAZRjV1nUWiU21sHI-30">
          <mxGeometry relative="1" as="geometry" />
        </mxCell>
        <mxCell id="rqwqAZRjV1nUWiU21sHI-29" value="Data Source" style="shape=cylinder3;whiteSpace=wrap;html=1;boundedLbl=1;backgroundOutline=1;size=15;fontSize=16;" vertex="1" parent="1">
          <mxGeometry x="4.5" y="343" width="129" height="176" as="geometry" />
        </mxCell>
        <mxCell id="rqwqAZRjV1nUWiU21sHI-34" style="edgeStyle=none;curved=1;rounded=0;orthogonalLoop=1;jettySize=auto;html=1;exitX=0.5;exitY=0;exitDx=0;exitDy=0;entryX=0.5;entryY=0.869;entryDx=0;entryDy=0;entryPerimeter=0;fontSize=12;startSize=8;endSize=8;" edge="1" parent="1" source="rqwqAZRjV1nUWiU21sHI-30" target="rqwqAZRjV1nUWiU21sHI-1">
          <mxGeometry relative="1" as="geometry" />
        </mxCell>
        <mxCell id="rqwqAZRjV1nUWiU21sHI-30" value="PySpark" style="shape=parallelogram;perimeter=parallelogramPerimeter;whiteSpace=wrap;html=1;fixedSize=1;fontSize=16;" vertex="1" parent="1">
          <mxGeometry x="-138.5" y="211" width="415" height="76" as="geometry" />
        </mxCell>
      </root>
    </mxGraphModel>
  </diagram>
</mxfile>
